<svg xmlns="http://www.w3.org/2000/svg" xmlns:xlink="http://www.w3.org/1999/xlink" x="0" y="0" version="1.1" viewBox="0 0 725 360"><defs><style type="text/css">.node{fill:#fff;stroke:gray;stroke-width:1}.node-label{fill:#025167;font-size:9pt;font-family:&quot;Helvetica&quot;}.heavy-label{font-weight:700}.bridge,.shadow{stroke:gray}.shadow{fill:#fafafa;stroke-width:.5}</style><g id="endpointGroup"><rect width="100" height="250" class="shadow"/><g transform="translate(50, 250)"><line x1="0" x2="50" class="bridge" transform="rotate(45)"/><rect width="25" height="150" class="shadow" transform="translate(25, 25)"/><line x1="0" x2="50" class="bridge" transform="rotate(90)"/><rect width="25" height="150" class="shadow" transform="translate(-12.5, 25)"/><line x1="0" x2="50" class="bridge" transform="rotate(135)"/><rect width="25" height="150" class="shadow" transform="translate(-50, 25)"/></g></g></defs><g id="clienStack" transform="translate(0, 10)"><g id="observed" transform="translate(25, 220) rotate(-90)"><rect width="100" height="25" class="node"/><text x="50" y="17.5" class="node-label" text-anchor="middle">Observe</text></g><g id="retries" transform="translate(50, 220) rotate(-90)"><rect width="100" height="25" class="node"/><text x="50" y="17.5" class="node-label" text-anchor="middle">Retries</text></g><g id="serviceTimeout" transform="translate(75, 220) rotate(-90)"><rect width="100" height="25" class="node"/><text x="50" y="17.5" class="node-label" text-anchor="middle">Session Timeout</text></g><g id="refcounted" transform="translate(100, 220) rotate(-90)"><rect width="100" height="25" class="node"/><text x="50" y="17.5" class="node-label" text-anchor="middle">Request Draining</text></g><g id="loadbalancer" transform="translate(125, 220) rotate(-90)"><rect width="100" height="100" class="node"/><text x="50" y="-50" class="heavy-label node-label" text-anchor="middle" transform="rotate(90)">Load Balancer</text><g id="endpointStack" transform="translate(50, 100)"><line x1="0" x2="150" class="bridge" transform="rotate(45)"/><g id="endpoint2" transform="translate(75, 75)"><use xlink:href="#endpointGroup"/></g><line x1="0" x2="75" class="bridge" transform="rotate(90)"/><g id="endpoint1" transform="translate(-50, 75)"><g id="monitored" transform="translate(0, 0)"><rect width="100" height="25" class="node"/><text x="50" y="17.5" class="node-label" text-anchor="middle">Monitor</text></g><g id="traced" transform="translate(0, 25)"><rect width="100" height="25" class="node"/><text x="50" y="17.5" class="node-label" text-anchor="middle">Trace</text></g><g id="observed" transform="translate(0, 50)"><rect width="100" height="25" class="node"/><text x="50" y="17.5" class="node-label" text-anchor="middle">Observe</text></g><g id="failureAccrual" transform="translate(0, 75)"><rect width="100" height="25" class="node"/><text x="50" y="17.5" class="heavy-label node-label" text-anchor="middle">Failure Accrual</text></g><g id="requestTimeout" transform="translate(0, 100)"><rect width="100" height="25" class="node"/><text x="50" y="17.5" class="node-label" text-anchor="middle">Request Timeout</text></g><g id="pool" transform="translate(0, 125)"><rect width="100" height="100" class="node"/><text x="50" y="-50" class="heavy-label node-label" text-anchor="middle" transform="rotate(90)">Pool</text></g><g id="failFast" transform="translate(0, 225)"><rect width="100" height="25" class="node"/><text x="50" y="17.5" class="heavy-label node-label" text-anchor="middle">Fail Fast</text></g><g id="transportStack" transform="translate(50, 250)"><line x1="0" x2="50" class="bridge" transform="rotate(45)"/><rect width="25" height="150" class="shadow" transform="translate(25, 25)"/><line x1="0" x2="25" class="bridge" transform="rotate(90)"/><g id="expiration" transform="translate(-12.5, 25)"><rect width="25" height="75" class="node"/><text x="37.5" y="-8.5" class="node-label" text-anchor="middle" transform="rotate(90)">Expiration</text></g><g id="dispatcher" transform="translate(-12.5, 100)"><rect width="25" height="75" class="node"/><text x="37.5" y="-8.5" class="node-label" text-anchor="middle" transform="rotate(90)">Dispatcher</text></g><line x1="0" x2="50" class="bridge" transform="rotate(135)"/><rect width="25" height="150" class="shadow" transform="translate(-50, 25)"/></g></g><line x1="0" x2="150" class="bridge" transform="rotate(135)"/><g id="endpoint2" transform="translate(-175, 75)"><use xlink:href="#endpointGroup"/></g></g></g></g></svg>